<svg width="549" height="155" viewBox="0 0 549 155" fill="none" xmlns="http://www.w3.org/2000/svg">
<path d="M83 12.5001H151.5L171 39.5001L183.5 64.0001L53.5 67.0001L83 12.5001Z" fill="#FEF3E3"/>
<path d="M49 69.0001H73L90.5 54.5001L110.5 69.0001L140 54.5001L186 64.5001L200 89.0001L230.5 139.5L118.5 142.5L7 139.5L30 100.5L49 69.0001Z" fill="#F3BE8A"/>
<path d="M88.6626 6.15596C81.0626 8.35596 77.2626 13.2893 61.3293 41.2893C45.996 68.356 22.8626 104.356 10.0626 121.223C-0.937365 135.689 -1.8707 140.689 5.59597 145.623C10.396 148.756 224.863 149.289 232.196 146.156C241.996 142.023 241.196 137.023 227.996 119.956C215.129 103.423 194.196 71.2893 180.929 47.8893C155.196 2.48929 159.196 5.35596 121.329 5.02263C105.129 4.8893 91.3293 5.35596 88.6626 6.15596ZM149.129 16.556C151.863 17.556 175.329 55.556 175.329 58.956C175.329 61.8893 158.729 57.956 152.263 53.556C141.996 46.4226 137.596 46.756 127.863 55.2893C117.796 64.0893 112.396 64.4226 104.996 56.8226C95.5293 47.0893 91.596 46.4893 82.596 53.4226C71.396 61.956 60.6626 66.4226 60.6626 62.6226C60.6626 59.8226 86.5293 18.0893 88.996 16.8893C92.7293 15.0893 144.463 14.756 149.129 16.556ZM147.863 61.0893C157.329 67.356 163.596 69.0893 172.596 68.156L180.196 67.356L193.396 87.6226C200.729 98.8226 210.796 113.556 215.863 120.423C229.663 139.089 240.063 137.223 120.263 137.623C9.59597 138.023 10.6626 138.089 15.596 131.223C16.5293 129.956 25.996 116.089 36.5293 100.423L55.7293 71.956L61.4626 72.4226C68.3293 72.8893 77.3293 69.2226 85.4626 62.6226C92.0626 57.156 93.1293 56.956 95.9293 60.8893C105.529 74.6226 123.529 74.2893 136.529 60.156C140.529 55.8226 139.729 55.756 147.863 61.0893Z" fill="#88573B"/>
<path d="M80.7293 89.8893C76.9293 93.6893 75.8626 99.0226 78.3293 101.556C80.796 103.956 83.0626 102.889 84.7293 98.4893C86.1293 94.6893 89.996 94.2226 89.996 97.8226C89.996 101.023 93.396 103.823 95.996 102.823C98.8626 101.689 98.4626 95.6893 95.2626 91.1559C91.8626 86.4226 84.796 85.8226 80.7293 89.8893Z" fill="#7B4528"/>
<path d="M142.929 89.6226C139.663 93.2893 138.063 98.4226 139.529 101.023C141.529 104.556 144.663 103.689 146.196 99.2226C147.863 94.4226 151.729 94.356 152.463 99.0226C152.996 102.823 155.996 104.156 158.796 101.889C161.329 99.756 160.263 94.4893 156.329 90.2893C152.929 86.6226 145.996 86.2893 142.929 89.6226Z" fill="#7B4528"/>
<path d="M99.796 107.956C97.796 113.289 109.596 121.889 119.063 121.956C127.796 121.956 138.796 114.423 137.796 109.089C136.996 105.089 132.863 105.423 128.729 109.823C122.996 116.023 112.463 115.289 107.596 108.423C105.463 105.423 100.863 105.156 99.796 107.956Z" fill="#7B4528"/>
<path d="M277.368 105.424C277.368 105.339 277.027 104.827 276.344 103.888C275.747 102.864 275.021 101.2 274.168 98.896C273.315 96.5067 272.504 93.2213 271.736 89.04C270.968 84.7733 270.371 79.3973 269.944 72.912C269.773 69.4987 270.243 67.0667 271.352 65.616C272.547 64.1653 274.04 63.2693 275.832 62.928C277.624 62.5013 279.331 62.288 280.952 62.288C280.952 62.288 281.421 62.288 282.36 62.288C283.384 62.2027 284.536 62.288 285.816 62.544C287.096 62.7147 288.205 63.2693 289.144 64.208C290.168 65.0613 290.723 66.4267 290.808 68.304C290.893 69.84 290.979 71.9307 291.064 74.576C291.149 77.2213 291.277 80.08 291.448 83.152C291.704 86.1387 292.088 89.04 292.6 91.856C293.112 94.672 293.752 97.0187 294.52 98.896C295.373 100.688 296.44 101.669 297.72 101.84C299 102.011 299.853 101.285 300.28 99.664C300.707 97.9573 300.835 95.824 300.664 93.264C300.579 90.704 300.323 88.144 299.896 85.584C299.555 82.9387 299.213 80.72 298.872 78.928C298.531 77.136 298.36 76.24 298.36 76.24C298.36 76.24 298.189 75.728 297.848 74.704C297.507 73.5947 297.379 72.3573 297.464 70.992C297.549 69.6267 298.147 68.3893 299.256 67.28C300.365 66.1707 302.328 65.5733 305.144 65.488C308.984 65.3173 311.843 65.7013 313.72 66.64C315.683 67.5787 317.005 68.7733 317.688 70.224C318.456 71.6747 318.925 73.168 319.096 74.704C319.267 75.5573 319.565 77.6053 319.992 80.848C320.504 84.0053 321.059 87.76 321.656 92.112C322.253 96.3787 322.723 100.816 323.064 105.424C323.405 109.947 323.533 114.085 323.448 117.84C323.363 121.595 322.851 124.453 321.912 126.416C320.461 129.573 318.456 132.475 315.896 135.12C313.421 137.851 310.093 139.941 305.912 141.392C301.816 142.928 296.568 143.525 290.168 143.184C285.389 142.928 281.549 142.16 278.648 140.88C275.747 139.685 273.571 138.363 272.12 136.912C270.669 135.547 269.688 134.309 269.176 133.2C268.749 132.176 268.536 131.664 268.536 131.664C268.536 131.664 268.365 131.195 268.024 130.256C267.768 129.317 267.725 128.208 267.896 126.928C268.152 125.733 268.963 124.667 270.328 123.728C271.693 122.875 274.083 122.491 277.496 122.576C280.909 122.661 283.384 122.96 284.92 123.472C286.456 124.069 287.437 124.709 287.864 125.392C288.291 126.075 288.419 126.672 288.248 127.184C288.163 127.696 288.12 127.952 288.12 127.952C288.12 127.952 288.12 128.421 288.12 129.36C288.12 130.299 288.419 131.195 289.016 132.048C289.699 132.901 290.893 133.285 292.6 133.2C294.392 133.029 296.312 132.219 298.36 130.768C300.408 129.403 301.944 127.312 302.968 124.496C304.077 121.68 303.992 118.181 302.712 114C302.712 114 301.901 114.128 300.28 114.384C298.659 114.64 296.525 114.64 293.88 114.384C291.32 114.213 288.547 113.488 285.56 112.208C282.659 110.843 279.928 108.581 277.368 105.424ZM343.149 114C343.149 114 342.594 114 341.485 114C340.461 114.085 339.224 113.957 337.773 113.616C336.408 113.275 335.128 112.592 333.933 111.568C332.824 110.459 332.141 108.795 331.885 106.576C331.714 104.784 331.501 102.395 331.245 99.408C331.074 96.4213 330.861 93.264 330.605 89.936C330.349 86.5227 330.136 83.3227 329.965 80.336C329.794 77.3493 329.624 74.9173 329.453 73.04C329.368 71.0773 329.325 70.096 329.325 70.096C329.325 70.096 329.282 69.712 329.197 68.944C329.197 68.176 329.368 67.28 329.709 66.256C330.136 65.1467 330.946 64.1653 332.141 63.312C333.336 62.4587 335.213 61.9893 337.773 61.904C341.186 61.7333 343.704 61.9467 345.325 62.544C346.946 63.1413 348.013 63.7813 348.525 64.464C349.122 65.1467 349.421 65.488 349.421 65.488C349.421 65.488 350.061 65.1467 351.341 64.464C352.706 63.7813 354.541 63.1413 356.845 62.544C359.149 61.8613 361.709 61.52 364.525 61.52C367.768 61.52 370.413 61.8613 372.461 62.544C374.594 63.2267 376.173 63.9093 377.197 64.592C378.221 65.2747 378.733 65.616 378.733 65.616C381.208 64.08 383.725 63.184 386.285 62.928C388.93 62.672 391.917 62.544 395.245 62.544C395.245 62.544 396.098 62.672 397.805 62.928C399.512 63.0987 401.645 63.6107 404.205 64.464C406.765 65.3173 409.325 66.7253 411.885 68.688C414.53 70.5653 416.749 73.2107 418.541 76.624C420.333 79.952 421.272 84.2613 421.357 89.552C421.528 96.208 421.357 101.243 420.845 104.656C420.333 108.069 419.608 110.416 418.669 111.696C417.73 112.976 416.578 113.701 415.213 113.872C413.848 113.957 412.354 114 410.733 114C407.49 114 404.717 113.317 402.413 111.952C400.194 110.501 399.341 108.325 399.853 105.424C400.024 104.315 400.152 102.523 400.237 100.048C400.408 97.5733 400.408 94.8853 400.237 91.984C400.066 88.9973 399.682 86.1813 399.085 83.536C398.488 80.8053 397.592 78.5867 396.397 76.88C395.202 75.088 393.624 74.2347 391.661 74.32C390.21 74.32 389.058 74.9173 388.205 76.112C387.437 77.2213 386.882 78.3307 386.541 79.44C386.2 80.5493 386.029 81.104 386.029 81.104L387.693 105.424C387.693 105.424 387.693 105.851 387.693 106.704C387.778 107.557 387.608 108.581 387.181 109.776C386.754 110.885 385.816 111.867 384.365 112.72C382.914 113.573 380.653 114 377.581 114C374.509 114 372.162 113.616 370.541 112.848C369.005 112.08 367.938 111.184 367.341 110.16C366.744 109.136 366.402 108.24 366.317 107.472C366.232 106.704 366.189 106.277 366.189 106.192C366.189 106.107 366.232 105.253 366.317 103.632C366.402 101.925 366.445 99.792 366.445 97.232C366.53 94.672 366.445 91.984 366.189 89.168C365.933 86.2667 365.464 83.5787 364.781 81.104C364.184 78.544 363.245 76.5813 361.965 75.216C360.77 73.7653 359.149 73.168 357.101 73.424C355.138 73.68 353.73 74.32 352.877 75.344C352.024 76.2827 351.469 77.1787 351.213 78.032C351.042 78.8853 350.957 79.312 350.957 79.312L353.005 106.32C353.005 106.32 353.005 106.704 353.005 107.472C353.09 108.24 352.877 109.136 352.365 110.16C351.938 111.184 351 112.08 349.549 112.848C348.184 113.616 346.05 114 343.149 114ZM470.068 30.544C470.068 30.544 470.58 30.6293 471.604 30.8C472.713 30.8853 473.951 31.1413 475.316 31.568C476.681 31.9093 477.919 32.5067 479.028 33.36C480.223 34.128 480.863 35.2373 480.948 36.688C481.033 37.6267 481.161 39.6747 481.332 42.832C481.503 45.904 481.673 49.5733 481.844 53.84C482.1 58.1067 482.313 62.544 482.484 67.152C482.74 71.6747 482.953 75.9413 483.124 79.952C483.295 83.8773 483.423 87.0773 483.508 89.552C483.679 92.0267 483.764 93.264 483.764 93.264C483.764 93.264 483.721 93.776 483.636 94.8C483.636 95.824 483.38 97.104 482.868 98.64C482.441 100.176 481.631 101.669 480.436 103.12C477.876 106.277 474.633 108.88 470.708 110.928C466.783 112.976 461.407 114 454.58 114C450.057 114 445.705 113.147 441.524 111.44C437.428 109.733 434.057 107.045 431.412 103.376C428.852 99.6213 427.615 94.7573 427.7 88.784C427.785 84.2613 428.767 80.2933 430.644 76.88C432.607 73.4667 435.167 70.6507 438.324 68.432C441.481 66.128 444.98 64.4213 448.82 63.312C452.745 62.2027 456.671 61.648 460.596 61.648L459.7 39.504C459.7 39.504 459.615 39.12 459.444 38.352C459.273 37.4987 459.359 36.5173 459.7 35.408C460.127 34.2987 461.108 33.2747 462.644 32.336C464.18 31.3973 466.655 30.8 470.068 30.544ZM460.98 72.784C459.017 72.6133 457.14 73.3387 455.348 74.96C453.556 76.5813 452.063 78.672 450.868 81.232C449.759 83.7067 449.204 86.1813 449.204 88.656C449.204 92.3253 449.801 95.4827 450.996 98.128C452.276 100.773 453.94 102.096 455.988 102.096C457.353 102.096 458.505 101.541 459.444 100.432C460.383 99.3227 461.108 98.2133 461.62 97.104C462.132 95.9093 462.388 95.312 462.388 95.312L460.98 72.784ZM514.425 61.136C518.692 61.0507 522.318 61.4347 525.305 62.288C528.292 63.056 530.766 63.9947 532.729 65.104C534.692 66.2133 536.228 67.1947 537.337 68.048C538.446 68.9013 539.257 69.328 539.769 69.328C540.708 69.4133 541.39 69.8827 541.817 70.736C542.244 71.504 542.457 71.888 542.457 71.888C542.457 71.888 542.585 72.7413 542.841 74.448C543.097 76.1547 543.396 78.3307 543.737 80.976C544.164 83.6213 544.548 86.3947 544.889 89.296C545.23 92.1973 545.529 94.928 545.785 97.488C546.041 100.048 546.169 102.053 546.169 103.504C546.169 105.893 545.998 107.813 545.657 109.264C545.401 110.715 544.548 111.824 543.097 112.592C541.646 113.275 539.257 113.744 535.929 114C533.454 114.171 531.662 114.128 530.553 113.872C529.444 113.616 528.761 113.317 528.505 112.976C528.249 112.635 528.121 112.464 528.121 112.464C527.353 113.061 526.073 113.488 524.281 113.744C522.574 113.915 520.953 114 519.417 114C517.881 114 517.113 114 517.113 114C517.113 114 516.132 113.872 514.169 113.616C512.206 113.275 509.774 112.635 506.873 111.696C504.057 110.672 501.198 109.179 498.297 107.216C495.481 105.168 493.134 102.48 491.257 99.152C489.38 95.7387 488.484 91.5147 488.569 86.48C488.654 81.4453 489.593 77.3493 491.385 74.192C493.177 70.9493 495.353 68.432 497.913 66.64C500.473 64.848 502.99 63.568 505.465 62.8C508.025 62.032 510.158 61.5627 511.865 61.392C513.572 61.2213 514.425 61.136 514.425 61.136ZM524.025 74.32C523.598 73.7227 522.66 73.0827 521.209 72.4C519.844 71.632 518.521 70.992 517.241 70.48C516.046 69.968 515.449 69.7973 515.449 69.968C515.449 70.0533 514.98 70.7787 514.041 72.144C513.188 73.424 512.292 75.344 511.353 77.904C510.5 80.3787 510.03 83.3653 509.945 86.864C509.86 90.3627 510.329 93.392 511.353 95.952C512.377 98.512 513.614 100.475 515.065 101.84C516.601 103.205 518.009 103.888 519.289 103.888C520.228 103.888 521.124 103.461 521.977 102.608C522.83 101.669 523.556 100.645 524.153 99.536C524.75 98.3413 525.22 97.3173 525.561 96.464C525.902 95.6107 526.073 95.184 526.073 95.184L524.025 74.32Z" fill="#7B4528"/>
<path d="M517.729 32.3559C515.129 35.0225 515.129 34.6892 518.396 41.0892C523.063 50.2225 530.196 46.3559 526.263 36.8225C524.063 31.4892 520.463 29.6225 517.729 32.3559Z" fill="#7B4528"/>
<path d="M505.196 35.2893C503.329 38.8893 508.129 48.9559 511.663 48.9559C515.396 48.9559 516.396 45.5559 514.329 39.7559C511.863 32.7559 507.596 30.6893 505.196 35.2893Z" fill="#7B4528"/>
</svg>
