<svg width="96" height="96" viewBox="0 0 96 96" fill="none" xmlns="http://www.w3.org/2000/svg">
<path d="M48 3C58.6021 3 66.5291 3.00735 72.7695 3.92285C78.717 4.79538 82.7804 6.45045 85.9385 9.46289L86.2422 9.75879C89.4426 12.9594 91.1765 17.0915 92.0771 23.2305C92.9927 29.4709 93 37.3979 93 48C93 58.602 92.9926 66.5291 92.0771 72.7695C91.2046 78.717 89.5495 82.7804 86.5371 85.9385L86.2422 86.2422C83.0415 89.4429 78.9088 91.1765 72.7695 92.0771C66.5291 92.9926 58.602 93 48 93C37.398 93 29.471 92.9927 23.2305 92.0771C17.283 91.2046 13.2196 89.5496 10.0615 86.5371L9.75781 86.2422C6.55714 83.0415 4.82353 78.9088 3.92285 72.7695C3.00736 66.5291 3 58.602 3 48C3 37.3979 3.00734 29.4709 3.92285 23.2305C4.79539 17.283 6.45042 13.2196 9.46289 10.0615L9.75781 9.75879C12.9585 6.5581 17.0912 4.82353 23.2305 3.92285C29.4709 3.00735 37.3979 3 48 3Z" fill="#F3BE8A" stroke="#88573B" stroke-width="6"/>
<path d="M48.0277 3.33337C57.093 3.33337 64.4064 3.3282 70.2757 4.02576C76.1938 4.72913 81.0347 6.18268 84.9769 9.37634L85.348 9.68396C89.1169 12.8919 90.9543 16.9208 91.8451 21.8392C92.7333 26.7441 92.722 32.8149 92.722 40.1107V43.1107H3.33333V40.1107C3.33333 32.8149 3.32205 26.7441 4.21029 21.8392C5.12974 16.7622 7.05831 12.6332 11.0785 9.37634L11.4505 9.0824C15.3242 6.09275 20.0463 4.70717 25.7796 4.02576C31.6489 3.32818 38.9622 3.33337 48.0277 3.33337Z" fill="#FEF3E3" stroke="#88573B" stroke-width="6"/>
</svg>
